<svg width="189" height="49" viewBox="0 0 189 49" fill="none" xmlns="http://www.w3.org/2000/svg">
<path d="M38.6875 42.375C37 44.25 34.5312 45.7604 31.2812 46.9062C28.0312 48.0521 24.4688 48.625 20.5938 48.625C14.6354 48.625 9.875 46.8021 6.3125 43.1562C2.75 39.5104 0.84375 34.4375 0.59375 27.9375L0.5625 24C0.5625 19.5208 1.35417 15.6146 2.9375 12.2812C4.52083 8.92708 6.78125 6.35417 9.71875 4.5625C12.6771 2.75 16.0938 1.84375 19.9688 1.84375C25.6354 1.84375 30.0312 3.14583 33.1562 5.75C36.3021 8.33333 38.1354 12.1979 38.6562 17.3438H28.0938C27.7188 14.8021 26.9062 12.9896 25.6562 11.9062C24.4062 10.8229 22.6354 10.2812 20.3438 10.2812C17.5938 10.2812 15.4688 11.4479 13.9688 13.7812C12.4688 16.1146 11.7083 19.4479 11.6875 23.7812V26.5312C11.6875 31.0729 12.4583 34.4896 14 36.7812C15.5625 39.0521 18.0104 40.1875 21.3438 40.1875C24.1979 40.1875 26.3229 39.5521 27.7188 38.2812V31.2188H20.0938V23.6875H38.6875V42.375ZM43.25 30.7812C43.25 27.4062 43.9062 24.4062 45.2188 21.7812C46.5312 19.1354 48.4167 17.1042 50.875 15.6875C53.3333 14.2708 56.2188 13.5625 59.5312 13.5625C64.5938 13.5625 68.5833 15.1354 71.5 18.2812C74.4167 21.4062 75.875 25.6667 75.875 31.0625V31.4375C75.875 36.7083 74.4062 40.8958 71.4688 44C68.5521 47.0833 64.5938 48.625 59.5938 48.625C54.7812 48.625 50.9167 47.1875 48 44.3125C45.0833 41.4167 43.5104 37.5 43.2812 32.5625L43.25 30.7812ZM53.7812 31.4375C53.7812 34.5625 54.2708 36.8542 55.25 38.3125C56.2292 39.7708 57.6771 40.5 59.5938 40.5C63.3438 40.5 65.2604 37.6146 65.3438 31.8438V30.7812C65.3438 24.7188 63.4062 21.6875 59.5312 21.6875C56.0104 21.6875 54.1042 24.3021 53.8125 29.5312L53.7812 31.4375ZM79.1875 30.8438C79.1875 25.4896 80.3438 21.2708 82.6562 18.1875C84.9688 15.1042 88.1979 13.5625 92.3438 13.5625C95.3646 13.5625 97.9062 14.75 99.9688 17.125V0H110.531V48H101.062L100.531 44.375C98.3646 47.2083 95.6146 48.625 92.2812 48.625C88.2604 48.625 85.0729 47.0833 82.7188 44C80.3646 40.9167 79.1875 36.5312 79.1875 30.8438ZM89.7188 31.5C89.7188 37.5 91.4688 40.5 94.9688 40.5C97.3021 40.5 98.9688 39.5208 99.9688 37.5625V24.6875C99.0104 22.6875 97.3646 21.6875 95.0312 21.6875C91.7812 21.6875 90.0208 24.3125 89.75 29.5625L89.7188 31.5ZM136.656 44.3438C134.427 47.1979 131.417 48.625 127.625 48.625C123.917 48.625 121.104 47.5521 119.188 45.4062C117.292 43.2396 116.344 40.1354 116.344 36.0938V14.1875H126.875V36.1562C126.875 39.0521 128.281 40.5 131.094 40.5C133.51 40.5 135.229 39.6354 136.25 37.9062V14.1875H146.844V48H136.969L136.656 44.3438ZM163.75 48H153.188V14.1875H163.75V48ZM152.562 5.46875C152.562 3.96875 153.104 2.73958 154.188 1.78125C155.271 0.822917 156.677 0.34375 158.406 0.34375C160.135 0.34375 161.542 0.822917 162.625 1.78125C163.708 2.73958 164.25 3.96875 164.25 5.46875C164.25 6.96875 163.708 8.19792 162.625 9.15625C161.542 10.1146 160.135 10.5938 158.406 10.5938C156.677 10.5938 155.271 10.1146 154.188 9.15625C153.104 8.19792 152.562 6.96875 152.562 5.46875ZM182.531 5.78125V14.1875H188.094V21.5H182.531V36.9688C182.531 38.2396 182.76 39.125 183.219 39.625C183.677 40.125 184.583 40.375 185.938 40.375C186.979 40.375 187.854 40.3125 188.562 40.1875V47.7188C186.667 48.3229 184.688 48.625 182.625 48.625C179 48.625 176.323 47.7708 174.594 46.0625C172.865 44.3542 172 41.7604 172 38.2812V21.5H167.688V14.1875H172V5.78125H182.531Z" fill="#6FB911"/>
</svg>
